<svg width="101" height="93" viewBox="0 0 101 93" fill="none" xmlns="http://www.w3.org/2000/svg">
<path d="M26.6521 1.0817C26.9565 2.00036 26.8242 4.75634 26.6521 6.33118C26.4801 7.90603 25.8185 16.4364 25.8185 16.4364C25.8185 16.4364 24.9583 11.5413 24.6539 10.5045C23.9261 8.08976 21.4118 0.701107 18.924 1.48853L18.4211 1.67226C18.4211 1.67226 19.4136 0.924211 20.6972 0.714231C23.066 0.346767 26.4536 0.478004 26.6521 1.0817Z" fill="#685A5A"/>
<path d="M0.0538588 24.4551C0.0538588 24.4551 0.344987 23.1952 2.39612 23.1952C4.44725 23.1952 6.06169 24.2188 7.86139 26.778C9.97869 29.7964 12.7047 38.2612 14.2794 44.4294C15.3249 48.5502 17.7465 61.0571 17.7465 63.2357C17.7465 65.4142 16.7276 67.0416 16.9525 71.5036C17.1775 75.9657 17.2172 87.9083 17.2172 87.9083C17.2172 87.9083 6.19402 88.0264 5.02951 88.1707C4.18259 88.2757 3.99732 87.6195 3.99732 87.0815C3.99732 86.5434 -0.541631 26.1218 0.0538588 24.4551Z" fill="#685A5A"/>
<path d="M19.0964 65.1123C19.0964 65.1123 18.4612 67.3959 18.4612 69.8237C18.4612 72.2516 18.4612 87.8689 18.4612 87.8689C18.4612 87.8689 50.525 87.6589 51.7557 87.6589C52.9864 87.6589 54.5346 87.7639 55.236 87.2652C55.7521 86.8977 55.9638 86.6221 56.1491 85.2179C56.3211 83.8924 58.359 65.5454 58.359 65.5454C58.359 65.5454 50.4456 63.9049 38.6152 64.3905C31.2047 64.6792 19.0964 65.1123 19.0964 65.1123Z" fill="#685A5A"/>
<path d="M19.3213 63.5374C19.3213 63.5374 45.6155 62.6188 51.1469 63.1437C55.9902 63.6031 58.0149 63.9049 58.0149 63.9049L48.5268 30.4657C48.5268 30.4657 41.672 30.1638 36.7096 30.1638C33.0837 30.1638 25.5144 30.1769 25.2894 31.4499C25.0777 32.7098 22.1532 59.246 19.3213 63.5374Z" fill="#685A5A"/>
<path d="M25.4878 30.0064C25.4878 30.0064 26.2288 25.2294 26.5464 24.6782C26.8905 24.0876 26.9699 23.7595 28.9946 23.3395C29.6827 23.1952 32.8189 23.0377 36.7756 23.0377C45.4565 23.0377 57.5516 22.9065 64.0094 23.0377C69.8849 23.1558 90.9123 23.6545 91.5739 23.917C92.2356 24.1795 98.958 28.5103 99.6593 30.3082C99.6593 30.3082 56.1754 29.3633 35.7831 29.1533C30.1458 29.0877 26.2553 29.6127 25.4878 30.0064Z" fill="#685A5A"/>
<path d="M49.731 30.5576L54.2699 46.9622C54.2699 46.9622 97.0261 47.2378 97.2113 47.0672C97.3966 46.8966 100.599 32.1718 100.453 31.7124C100.321 31.2794 100.149 31.2794 100.149 31.2794C100.149 31.2794 53.4627 30.5576 49.731 30.5576Z" fill="#685A5A"/>
<path d="M94.5384 49.9019C94.4854 50.3481 93.6517 50.6237 92.6725 50.5187C91.6932 50.4137 90.9389 49.9544 90.9919 49.4951C91.0316 49.2195 91.3492 49.0358 91.8256 48.9439L92.0241 47.7759H94.3266L93.8503 49.1801C94.3002 49.3638 94.5781 49.6263 94.5384 49.9019Z" fill="#FF9A51"/>
<path d="M9.56957 92.9722C8.16686 93.1559 6.90972 92.4079 6.76415 91.3186C6.68475 90.7543 6.92295 90.19 7.35964 89.77L7.22731 89.1007C8.78882 88.9432 10.6811 88.9695 10.6811 88.9695L10.7341 89.2582C11.3296 89.5469 11.753 90.0456 11.8324 90.6624C11.9912 91.7517 10.9723 92.7885 9.56957 92.9722Z" fill="white"/>
<path d="M10.5742 92.8953C9.1715 93.079 7.91435 92.331 7.76879 91.2417C7.68939 90.6774 7.92759 90.1131 8.36428 89.6931L8.23195 89.0238C9.79345 88.8663 11.6858 88.8926 11.6858 88.8926L11.7387 89.1813C12.3342 89.47 12.7577 89.9687 12.8371 90.5855C12.9959 91.6748 11.9769 92.7116 10.5742 92.8953Z" fill="#FF9A51"/>
<path d="M51.254 91.3318C51.0687 92.3686 49.7454 93.0117 48.303 92.7623C46.8606 92.513 45.8416 91.4631 46.0269 90.4132C46.1063 89.9538 46.4106 89.5995 46.8473 89.337L46.8076 88.9039H50.3938V89.5601C51.0687 90.0457 51.373 90.6888 51.254 91.3318Z" fill="white"/>
<path d="M52.2583 91.2548C52.0731 92.2916 50.7498 92.9346 49.3074 92.6853C47.865 92.4359 46.846 91.386 47.0313 90.3361C47.1107 89.8768 47.415 89.5225 47.8517 89.26L47.812 88.8269H51.3982V89.4831C52.0731 89.9687 52.3774 90.6117 52.2583 91.2548Z" fill="#FF9A51"/>
<path d="M20.0886 6.5437L10.5469 23.1162V25.125L16.071 37.1777L19.5864 53.7502L24.6084 24.6228L24.1062 17.0898L22.0974 8.05029L20.0886 6.5437Z" fill="#FF9A51"/>
<path d="M25.2364 17.8275C25.2364 16.8433 24.8526 14.4154 23.6087 10.2158C22.3383 5.93744 20.5254 3.11584 19.7843 2.55152C19.083 2.02657 18.1302 2.0397 17.6273 2.47278C17.2436 2.814 1.40356 22.4077 1.40356 22.4077C8.80087 19.7042 12.5326 32.4605 15.1528 42.5395C17.3362 50.9124 18.6992 61.8707 18.6992 61.8707C20.1681 59.4035 24.3233 31.9224 24.5615 30.0326C24.7997 28.1165 25.8054 24.1925 25.8054 24.1925C25.8054 24.1925 25.2364 18.8118 25.2364 17.8275ZM12.8634 24.7175C12.7311 24.7831 12.4929 24.5863 12.3473 24.2713C12.2018 23.9563 12.1753 23.6545 12.3076 23.5888C12.44 23.5232 12.6782 23.7201 12.8237 24.0351C12.9825 24.35 12.9958 24.6519 12.8634 24.7175ZM15.0998 21.1478C14.9675 21.2135 14.7558 21.0166 14.6102 20.7279C14.4646 20.426 14.4514 20.1373 14.5705 20.0848C14.7028 20.0192 14.9146 20.2161 15.0601 20.5048C15.2057 20.8066 15.2189 21.0953 15.0998 21.1478ZM16.1188 35.2558C15.96 35.2952 15.735 35.0327 15.6292 34.6521C15.5233 34.2716 15.563 33.9303 15.7218 33.8778C15.8806 33.8385 16.1055 34.1009 16.2114 34.4815C16.3305 34.8621 16.2908 35.2033 16.1188 35.2558ZM17.0848 17.342C16.9525 17.4076 16.7407 17.2107 16.5952 16.922C16.4496 16.6202 16.4364 16.3314 16.5555 16.2789C16.6878 16.2133 16.8995 16.4102 17.0451 16.6989C17.1907 17.0007 17.2039 17.2895 17.0848 17.342ZM17.8126 30.1901C17.6671 30.2295 17.4686 29.9932 17.3759 29.652C17.2833 29.3108 17.3098 29.0089 17.4553 28.9696C17.6009 28.9302 17.7994 29.1664 17.892 29.5076C17.9846 29.8489 17.9582 30.1507 17.8126 30.1901ZM18.5934 13.1292C18.4346 12.8536 18.3949 12.5649 18.514 12.4993C18.6331 12.4337 18.858 12.6043 19.0301 12.8799C19.1889 13.1555 19.2286 13.4442 19.1095 13.5098C18.9904 13.5886 18.7522 13.418 18.5934 13.1292ZM19.5064 47.6184C19.3609 47.6578 19.1624 47.4215 19.0698 47.0934C18.9771 46.7653 19.0036 46.4504 19.1492 46.411C19.2947 46.3716 19.4932 46.6079 19.5858 46.936C19.6785 47.264 19.652 47.5659 19.5064 47.6184ZM19.5329 25.518C19.4006 25.5705 19.2021 25.3474 19.0962 25.0456C18.9904 24.7306 19.0036 24.4419 19.1359 24.4025C19.2683 24.35 19.4668 24.5731 19.5726 24.875C19.6785 25.1768 19.6652 25.4655 19.5329 25.518ZM20.7636 41.2009C20.618 41.2403 20.4195 41.004 20.3269 40.6628C20.2343 40.3216 20.2607 40.0197 20.4063 39.9804C20.5519 39.941 20.7504 40.1772 20.843 40.5184C20.9489 40.8597 20.9092 41.1615 20.7636 41.2009ZM21.0018 9.69083C20.8827 9.74332 20.6974 9.55959 20.5783 9.28399C20.4592 9.00839 20.4592 8.75904 20.5783 8.70655C20.6974 8.65405 20.8827 8.83778 21.0018 9.11338C21.1209 9.38898 21.1209 9.63833 21.0018 9.69083ZM21.1606 20.5704C21.2665 20.531 21.4253 20.7016 21.5046 20.951C21.5973 21.2003 21.584 21.4234 21.4782 21.4628C21.3723 21.5022 21.2135 21.3316 21.1341 21.0822C21.0547 20.8329 21.0547 20.6098 21.1606 20.5704ZM21.6237 35.4396C21.4782 35.4789 21.2929 35.2296 21.2003 34.9015C21.1077 34.5734 21.1474 34.2584 21.2929 34.2191C21.4385 34.1797 21.6237 34.429 21.7164 34.7571C21.809 35.0984 21.7693 35.4002 21.6237 35.4396ZM22.6295 29.9014C22.5104 29.9276 22.3648 29.7307 22.2986 29.4683C22.2325 29.2058 22.2589 28.9564 22.378 28.9302C22.4971 28.904 22.6427 29.1008 22.7089 29.3633C22.775 29.6258 22.7486 29.862 22.6295 29.9014ZM22.9338 18.0506C22.828 18.09 22.6692 17.9063 22.5898 17.6569C22.4971 17.4076 22.5236 17.1713 22.6295 17.132C22.7353 17.0926 22.8941 17.2763 22.9735 17.5257C23.0529 17.7882 23.0397 18.0244 22.9338 18.0506ZM23.9528 24.7044C23.8601 24.7306 23.7278 24.5731 23.6616 24.3369C23.5955 24.1138 23.6219 23.9038 23.7146 23.8776C23.8072 23.8513 23.9395 24.0088 24.0057 24.245C24.0719 24.4681 24.0454 24.6781 23.9528 24.7044Z" fill="#685A5A"/>
<path d="M88.3876 3.53052H31.1372L28.6262 11.5657L31.1372 20.103H86.3788L90.8986 12.5701L88.3876 3.53052Z" fill="#FF9A51"/>
<path d="M91.8917 0.779816C91.8917 0.779816 35.082 0.779816 33.3088 0.779816C31.5488 0.779816 27.3671 0.950424 27.3671 0.950424C28.439 3.74578 26.282 17.7619 26.282 19.1793C26.282 20.7541 26.4805 22.7621 26.4805 22.7621C28.214 21.5415 44.9142 22.0534 57.5518 22.0534C70.1894 22.0534 91.5344 22.9064 91.5344 22.9064C93.1621 14.3104 93.2812 3.18146 93.2812 1.82971C93.2812 0.727321 91.8917 0.779816 91.8917 0.779816ZM32.1178 12.9455C31.787 12.9455 31.5223 12.683 31.5223 12.3549C31.5223 12.0268 31.787 11.7644 32.1178 11.7644C32.4486 11.7644 32.7133 12.0268 32.7133 12.3549C32.7265 12.683 32.4486 12.9455 32.1178 12.9455ZM36.617 18.195C36.2862 18.195 36.0215 17.9325 36.0215 17.6044C36.0215 17.2763 36.2862 17.0139 36.617 17.0139C36.9479 17.0139 37.2125 17.2763 37.2125 17.6044C37.2258 17.9325 36.9479 18.195 36.617 18.195ZM37.014 6.77736C36.6832 6.77736 36.4185 6.51488 36.4185 6.18679C36.4185 5.8587 36.6832 5.59622 37.014 5.59622C37.3449 5.59622 37.6095 5.8587 37.6095 6.18679C37.6228 6.51488 37.3449 6.77736 37.014 6.77736ZM42.3073 12.9455C41.9764 12.9455 41.7118 12.683 41.7118 12.3549C41.7118 12.0268 41.9764 11.7644 42.3073 11.7644C42.6381 11.7644 42.9028 12.0268 42.9028 12.3549C42.916 12.683 42.6381 12.9455 42.3073 12.9455ZM45.8802 18.195C45.5494 18.195 45.2847 17.9325 45.2847 17.6044C45.2847 17.2763 45.5494 17.0139 45.8802 17.0139C46.211 17.0139 46.4757 17.2763 46.4757 17.6044C46.4889 17.9325 46.211 18.195 45.8802 18.195ZM46.2772 6.77736C45.9464 6.77736 45.6817 6.51488 45.6817 6.18679C45.6817 5.8587 45.9464 5.59622 46.2772 5.59622C46.608 5.59622 46.8727 5.8587 46.8727 6.18679C46.8859 6.51488 46.608 6.77736 46.2772 6.77736ZM51.5704 12.9455C51.2396 12.9455 50.975 12.683 50.975 12.3549C50.975 12.0268 51.2396 11.7644 51.5704 11.7644C51.9013 11.7644 52.1659 12.0268 52.1659 12.3549C52.1792 12.683 51.9013 12.9455 51.5704 12.9455ZM55.1434 18.195C54.8126 18.195 54.5479 17.9325 54.5479 17.6044C54.5479 17.2763 54.8126 17.0139 55.1434 17.0139C55.4742 17.0139 55.7389 17.2763 55.7389 17.6044C55.7521 17.9325 55.4742 18.195 55.1434 18.195ZM55.5404 6.77736C55.2096 6.77736 54.9449 6.51488 54.9449 6.18679C54.9449 5.8587 55.2096 5.59622 55.5404 5.59622C55.8712 5.59622 56.1359 5.8587 56.1359 6.18679C56.1491 6.51488 55.8712 6.77736 55.5404 6.77736ZM60.8336 12.9455C60.5028 12.9455 60.2381 12.683 60.2381 12.3549C60.2381 12.0268 60.5028 11.7644 60.8336 11.7644C61.1645 11.7644 61.4291 12.0268 61.4291 12.3549C61.4423 12.683 61.1645 12.9455 60.8336 12.9455ZM64.4066 18.195C64.0757 18.195 63.8111 17.9325 63.8111 17.6044C63.8111 17.2763 64.0757 17.0139 64.4066 17.0139C64.7374 17.0139 65.0021 17.2763 65.0021 17.6044C65.0153 17.9325 64.7374 18.195 64.4066 18.195ZM64.8036 6.77736C64.4727 6.77736 64.2081 6.51488 64.2081 6.18679C64.2081 5.8587 64.4727 5.59622 64.8036 5.59622C65.1344 5.59622 65.399 5.8587 65.399 6.18679C65.4123 6.51488 65.1344 6.77736 64.8036 6.77736ZM70.0968 12.9455C69.766 12.9455 69.5013 12.683 69.5013 12.3549C69.5013 12.0268 69.766 11.7644 70.0968 11.7644C70.4276 11.7644 70.6923 12.0268 70.6923 12.3549C70.7055 12.683 70.4276 12.9455 70.0968 12.9455ZM73.6697 18.195C73.3389 18.195 73.0742 17.9325 73.0742 17.6044C73.0742 17.2763 73.3389 17.0139 73.6697 17.0139C74.0006 17.0139 74.2652 17.2763 74.2652 17.6044C74.2785 17.9325 74.0006 18.195 73.6697 18.195ZM74.0667 6.77736C73.7359 6.77736 73.4712 6.51488 73.4712 6.18679C73.4712 5.8587 73.7359 5.59622 74.0667 5.59622C74.3976 5.59622 74.6622 5.8587 74.6622 6.18679C74.6755 6.51488 74.3976 6.77736 74.0667 6.77736ZM79.36 12.9455C79.0291 12.9455 78.7645 12.683 78.7645 12.3549C78.7645 12.0268 79.0291 11.7644 79.36 11.7644C79.6908 11.7644 79.9555 12.0268 79.9555 12.3549C79.9687 12.683 79.6908 12.9455 79.36 12.9455ZM82.9329 18.195C82.6021 18.195 82.3374 17.9325 82.3374 17.6044C82.3374 17.2763 82.6021 17.0139 82.9329 17.0139C83.2637 17.0139 83.5284 17.2763 83.5284 17.6044C83.5416 17.9325 83.2637 18.195 82.9329 18.195ZM83.3299 6.77736C82.9991 6.77736 82.7344 6.51488 82.7344 6.18679C82.7344 5.8587 82.9991 5.59622 83.3299 5.59622C83.6607 5.59622 83.9254 5.8587 83.9254 6.18679C83.9386 6.51488 83.6607 6.77736 83.3299 6.77736ZM88.6231 12.9455C88.2923 12.9455 88.0277 12.683 88.0277 12.3549C88.0277 12.0268 88.2923 11.7644 88.6231 11.7644C88.954 11.7644 89.2186 12.0268 89.2186 12.3549C89.2319 12.683 88.954 12.9455 88.6231 12.9455Z" fill="#685A5A"/>
</svg>
