<svg width="103" height="70" viewBox="0 0 103 70" fill="none" xmlns="http://www.w3.org/2000/svg">
<path d="M9.22518 1.07486C10.4405 -0.827307 61.9243 0.33818 69.8568 0.514103C73.7458 0.602064 73.4474 2.87806 73.6795 4.50535C73.9888 6.68239 75.635 17.0728 75.635 19.4368C75.635 21.8007 22.4607 25.792 22.4607 25.792L10.4957 13.4334C10.4957 13.4334 8.27505 2.5592 9.22518 1.07486Z" fill="#685A5A"/>
<path d="M22.7371 26.5066C22.7371 26.5066 65.7913 23.7359 75.9002 20.8221C75.9002 20.8221 92.3066 26.0998 94.24 27.4742C94.24 27.4742 25.6096 39.9317 24.7809 40.4705C24.7809 40.4705 24.107 37.6997 24.1181 37.4248C24.2175 35.6546 23.7314 28.9476 23.422 27.947C23.2453 27.4082 23.179 26.7705 22.7371 26.5066Z" fill="#685A5A"/>
<path d="M75.3257 10.2338L76.5078 19.8875C76.5078 19.8875 94.3062 25.506 95.3558 26.5506C95.3558 26.5506 95.853 19.8655 96.5932 19.1398C97.3776 18.3592 101.289 17.8424 102.294 17.9304C102.438 17.9414 100.449 16.8638 97.8747 16.1382C95.3005 15.4125 75.9554 10.2338 75.3257 10.2338Z" fill="#685A5A"/>
<path d="M97.3113 19.9865C97.8637 19.1509 101.907 18.6561 102.294 19.03C102.813 19.5467 98.4161 43.2963 97.6869 43.6261C96.9467 43.956 92.6821 45.0885 92.6821 45.0885C92.6821 45.0885 94.3062 37.9087 94.4167 37.7987C94.5272 37.6888 95.1569 37.4469 95.2674 37.172C95.5215 36.4793 97.5212 30.9377 96.5379 28.4088C96.096 27.3313 96.792 20.7672 97.3113 19.9865Z" fill="#685A5A"/>
<path d="M24.8691 41.757C24.8691 41.757 43.3194 38.2275 61.2945 34.7421C77.8114 31.5315 93.9194 28.3209 94.9358 28.9586C96.7588 30.1131 94.8143 36.3584 94.2398 36.9411C93.6653 37.5238 25.3332 53.5108 25.0791 53.159C24.8139 52.7961 25.2006 44.3188 24.8691 41.757Z" fill="#685A5A"/>
<path d="M24.9688 54.3574V64.1431C24.9688 64.1431 88.948 46.254 91.7652 45.2314L93.555 38.1066C93.555 38.1066 27.2888 54.3574 24.9688 54.3574Z" fill="#685A5A"/>
<path d="M0.939084 14.4229C0.939084 14.4229 8.09822 13.8402 8.61747 13.8402C9.13673 13.8402 9.60075 13.7962 10.2194 14.4229C10.8381 15.0387 21.853 26.1548 21.9967 26.5616C21.9967 26.5616 7.85516 25.8799 7.15913 27.969C6.26424 30.6408 11.1143 64.143 11.1143 64.143L3.45804 41.0532C3.45804 41.0532 0 16.2591 0 15.9073C0 15.5554 0.0441921 14.4889 0.939084 14.4229Z" fill="#685A5A"/>
<path d="M8.81639 28.134C9.67814 27.6612 22.074 26.5617 22.5933 27.6612C23.5987 29.8492 24.0075 64.396 24.0075 64.396C24.0075 64.396 13.6444 67.6836 13.1141 67.6836C12.5838 67.6836 11.9209 67.4857 11.7883 65.5395C11.6557 63.5934 7.86626 31.7404 7.95465 29.7613C7.9657 29.3435 7.95465 28.6178 8.81639 28.134Z" fill="#685A5A"/>
<path d="M22.1158 69.9641C20.5581 70.173 19.155 69.4473 19.0113 68.3588C18.934 67.7541 19.2102 67.1714 19.7626 66.7206L20.81 66.3179L23.4084 66.2258C24.0713 66.5116 24.5685 66.9954 24.6569 67.6002C24.7895 68.6997 23.6736 69.7552 22.1158 69.9641Z" fill="white"/>
<path d="M23.245 69.7066C21.6872 69.9155 20.2841 69.1898 20.1405 68.1013C20.0631 67.4966 20.3393 66.9138 20.8917 66.463V66.2761L24.5376 65.1546V65.9682C25.2005 66.2541 25.6976 66.7379 25.786 67.3426C25.9186 68.4422 24.8028 69.4977 23.245 69.7066Z" fill="#FF9A51"/>
<path d="M91.8201 48.431C91.787 48.9588 90.8147 49.3216 89.6436 49.2336C88.4726 49.1457 87.5666 48.6729 87.5998 48.1451C87.6219 47.8482 87.9423 47.6063 88.4173 47.4634L88.5278 46.9906L91.4776 46.133L91.2346 47.7163C91.6213 47.9142 91.8422 48.1671 91.8201 48.431Z" fill="#FF9A51"/>
</svg>
