<svg width="23" height="24" viewBox="0 0 23 24" fill="none" xmlns="http://www.w3.org/2000/svg">
<path d="M7.64532 23.2972C9.02718 23.2972 10.1474 22.177 10.1474 20.7952C10.1474 19.4133 9.02718 18.2931 7.64532 18.2931C6.26347 18.2931 5.14325 19.4133 5.14325 20.7952C5.14325 22.177 6.26347 23.2972 7.64532 23.2972Z" fill="white"/>
<path d="M18.2097 23.2972C19.5916 23.2972 20.7118 22.177 20.7118 20.7952C20.7118 19.4133 19.5916 18.2931 18.2097 18.2931C16.8279 18.2931 15.7076 19.4133 15.7076 20.7952C15.7076 22.177 16.8279 23.2972 18.2097 23.2972Z" fill="white"/>
<path d="M6.38322 4.37537C5.95716 4.36901 5.58193 4.09335 5.44848 3.68868L4.8096 1.75145C4.46653 0.718321 3.50716 0.0155382 2.41869 0H0.556022C0.24893 0 0 0.24893 0 0.556022C0 0.863113 0.24893 1.11204 0.556022 1.11204H2.41869C3.02324 1.1254 3.55558 1.51359 3.75316 2.08509L7.14366 12.3911C7.21635 12.612 7.20974 12.8514 7.12499 13.068L7.00591 13.3723C6.70105 14.1694 6.78321 15.0628 7.22834 15.791C7.69102 16.4973 8.46942 16.9333 9.31343 16.9586H20.1558C20.4629 16.9586 20.7118 16.7097 20.7118 16.4026C20.7118 16.0955 20.4629 15.8466 20.1558 15.8466H9.31338C8.84526 15.8304 8.41679 15.5796 8.17356 15.1794C7.91111 14.7843 7.85918 14.2856 8.03457 13.8449L8.36816 13.0108C8.41539 12.8853 8.42671 12.7492 8.40107 12.6179C8.39793 12.6018 8.39287 12.5861 8.38678 12.5709C8.30774 12.3733 8.43971 12.155 8.65137 12.1332L19.5441 11.0091C20.368 10.935 21.0515 10.3411 21.24 9.53565L22.12 5.82704C22.2677 5.20483 21.8014 4.60583 21.162 4.59627L6.38322 4.37537Z" fill="white"/>
</svg>
