<svg width="22" height="15" viewBox="0 0 22 15" fill="none" xmlns="http://www.w3.org/2000/svg">
<path d="M14.7539 7.45596L21.9589 12.0108V2.70874L14.7539 7.45596Z" fill="#FFC50C"/>
<path d="M0.585938 2.70874V12.0108L7.79091 7.45596L0.585938 2.70874Z" fill="#FFC50C"/>
<path d="M20.621 0H1.92067C1.25413 0 0.72518 0.496895 0.625 1.13671L11.2708 8.15068L21.9167 1.13671C21.8165 0.496895 21.2875 0 20.621 0Z" fill="#FFC50C"/>
<path d="M13.5295 8.2633L11.6394 9.50821C11.5272 9.58167 11.4003 9.61774 11.2721 9.61774C11.1438 9.61774 11.0169 9.58167 10.9047 9.50821L9.01468 8.26196L0.628906 13.5662C0.731758 14.2007 1.25804 14.6935 1.9219 14.6935H20.6222C21.2861 14.6935 21.8124 14.2007 21.9152 13.5662L13.5295 8.2633Z" fill="#FFC50C"/>
</svg>
