<svg width="17" height="27" viewBox="0 0 17 27" fill="none" xmlns="http://www.w3.org/2000/svg">
<path d="M8.2401 0H8.20279C3.68831 0 0.015625 3.71362 0.015625 8.27822C0.015625 11.2703 1.3628 15.2191 4.0197 20.0152C5.98952 23.5708 7.98695 26.2941 8.00696 26.3211C8.06256 26.3967 8.1502 26.4412 8.24305 26.4412C8.24569 26.4412 8.24839 26.4412 8.25103 26.4411C8.34682 26.4384 8.43525 26.3888 8.4884 26.308C8.5081 26.2779 10.4913 23.2486 12.4477 19.5435C15.0884 14.5426 16.4274 10.7524 16.4274 8.27822C16.4272 3.71356 12.7545 0 8.2401 0ZM12.0192 8.48051C12.0192 10.5987 10.3155 12.3219 8.22138 12.3219C6.12729 12.3219 4.42363 10.5987 4.42363 8.48051C4.42363 6.36237 6.12729 4.63914 8.22138 4.63914C10.3155 4.63914 12.0192 6.36237 12.0192 8.48051Z" fill="#FFC50C"/>
</svg>
