<svg width="28" height="28" viewBox="0 0 28 28" fill="none" xmlns="http://www.w3.org/2000/svg">
<path d="M11.8113 16.491C9.21194 13.8917 8.62503 11.2924 8.49262 10.251C8.45562 9.96301 8.55472 9.67423 8.76072 9.46967L10.8642 7.36711C11.1736 7.05787 11.2286 6.57594 10.9966 6.20502L7.64747 1.00451C7.39088 0.593783 6.86403 0.445549 6.43091 0.662218L1.05432 3.19439C0.704081 3.36686 0.498074 3.73898 0.53784 4.12735C0.819558 6.80367 1.98634 13.3827 8.45177 19.8486C14.9172 26.3145 21.4953 27.4808 24.1731 27.7626C24.5614 27.8023 24.9335 27.5963 25.106 27.2461L27.6382 21.8695C27.854 21.4373 27.7068 20.9119 27.2978 20.6548L22.0973 17.3066C21.7266 17.0744 21.2446 17.1289 20.9352 17.4381L18.8326 19.5416C18.628 19.7476 18.3393 19.8467 18.0513 19.8097C17.0099 19.6773 14.4106 19.0903 11.8113 16.491Z" fill="white"/>
</svg>
