<svg width="74" height="83" viewBox="0 0 74 83" fill="none" xmlns="http://www.w3.org/2000/svg">
<circle cx="40.2371" cy="39.3387" r="33.0481" fill="#D8ECFE"/>
<path d="M47.6268 49.1089V53.0184H53.7294C54.2196 51.2429 55.577 49.7966 57.3455 49.1089H47.6268Z" fill="#FE646F"/>
<path d="M71.3921 49.1089H61.255C63.0236 49.7966 64.3811 51.2429 64.8711 53.0184H70.3629C71.1125 53.0184 71.7201 52.4433 71.7201 51.7339V49.2373L71.3921 49.1089Z" fill="#FE646F"/>
<path d="M11.682 48.5254H49.424V53.0185H13.682C12.5774 53.0185 11.682 52.1231 11.682 51.0185V48.5254Z" fill="#4A4747"/>
<path d="M53.4027 0H53.368C49.1723 0 45.7589 3.57043 45.7589 7.95902C45.7589 10.8357 47.011 14.6323 49.4803 19.2434C51.311 22.662 53.1674 25.2802 53.186 25.3062C53.2377 25.3788 53.3191 25.4216 53.4054 25.4216C53.4079 25.4216 53.4104 25.4216 53.4128 25.4215C53.5019 25.419 53.5841 25.3713 53.6334 25.2936C53.6518 25.2646 55.4949 22.3522 57.3132 18.7899C59.7675 13.9819 61.0119 10.3378 61.0119 7.95902C61.0117 3.57037 57.5983 0 53.4027 0ZM56.9149 8.15352C56.9149 10.19 55.3316 11.8468 53.3853 11.8468C51.4391 11.8468 49.8557 10.19 49.8557 8.15352C49.8557 6.11705 51.4391 4.46026 53.3853 4.46026C55.3316 4.46026 56.9149 6.11705 56.9149 8.15352Z" fill="#8B66A9"/>
<path d="M69.1416 42.6792H71.6171L71.7201 42.5435V40.4668C71.7201 40.1341 71.6702 39.8053 71.5752 39.4899L71.3846 39.3542H53.6792C53.3798 39.3542 53.1364 39.1107 53.1364 38.8113V31.0756C53.1364 30.7762 53.3798 30.5327 53.6792 30.5327H65.936L66.0109 30.397L64.9261 28.6692C64.6779 28.2738 64.2438 28.0337 63.7768 28.0337H49.399V49.2451H56.2954C57.0941 48.8644 57.9869 48.6505 58.9291 48.6505C59.8712 48.6505 60.764 48.8642 61.5627 49.2451H71.7201V47.2935L71.6473 47.1578H69.1416C68.8422 47.1578 68.5987 46.9143 68.5987 46.6149V43.222C68.5987 42.9227 68.8422 42.6792 69.1416 42.6792Z" fill="#FF302C"/>
<path d="M56.3933 30.5915L56.2576 30.397H53.6791C53.3044 30.397 53.0005 30.7008 53.0005 31.0755V38.8113C53.0005 39.186 53.3044 39.4898 53.6791 39.4898H56.2576L56.3933 39.25V30.5915Z" fill="#FE646F"/>
<path d="M42.1124 16.0112H12.6941C11.9445 16.0112 11.3369 16.6188 11.3369 17.3684V49.2451H30.3291C30.6285 49.2451 30.3291 49.2451 31.1713 49.2451H46.3415C46.6409 49.2451 46.8843 49.2451 46.8843 49.2451H49.5347V23.6905C49.5102 15.9879 49.5347 23.6905 49.5347 16.0112C42.1124 16.0112 49.5347 16.0112 42.1124 16.0112Z" fill="#685A5A"/>
<circle cx="59.3089" cy="54.8157" r="6.29033" fill="#949090"/>
<path d="M54.8158 59.3088C56.4394 61.1061 58.8596 61.1061 58.8596 61.1061C55.7144 58.8595 55.195 56.5465 55.195 54.7376C55.195 51.6851 57.3576 49.1489 60.2075 48.626C59.8541 48.5611 59.4909 48.5254 59.1193 48.5254C55.75 48.5254 53.0186 51.3066 53.0186 54.7374C53.0186 56.5461 53.6045 58.1736 54.8158 59.3088Z" fill="#7A7878"/>
<path d="M59.0733 58.15C60.9284 58.15 62.4322 56.6461 62.4322 54.7911C62.4322 52.936 60.9284 51.4321 59.0733 51.4321C57.2182 51.4321 55.7144 52.936 55.7144 54.7911C55.7144 56.6461 57.2182 58.15 59.0733 58.15Z" fill="#CFCAE4"/>
<path d="M59.3098 56.5896C60.3029 56.5896 61.108 55.7845 61.108 54.7914C61.108 53.7983 60.3029 52.9932 59.3098 52.9932C58.3167 52.9932 57.5116 53.7983 57.5116 54.7914C57.5116 55.7845 58.3167 56.5896 59.3098 56.5896Z" fill="white"/>
<path d="M58.9366 54.7914C58.9366 54.053 59.3843 53.4175 60.0223 53.1411C59.8037 53.0464 59.5629 52.9932 59.3098 52.9932C58.3183 52.9932 57.5116 53.7999 57.5116 54.7914C57.5116 55.7829 58.3181 56.5896 59.3098 56.5896C59.5629 56.5896 59.8037 56.5364 60.0223 56.4417C59.3843 56.1651 58.9366 55.5298 58.9366 54.7914Z" fill="#605D5D"/>
<circle cx="25.1613" cy="54.8157" r="6.29033" fill="#949090"/>
<path d="M20.6682 59.3088C22.2919 61.1061 24.712 61.1061 24.712 61.1061C21.5668 58.8595 21.0474 56.5465 21.0474 54.7376C21.0474 51.6851 23.2101 49.1489 26.0599 48.626C25.7065 48.5611 25.3433 48.5254 24.9717 48.5254C21.6024 48.5254 18.871 51.3066 18.871 54.7374C18.871 56.5461 19.4569 58.1736 20.6682 59.3088Z" fill="#7A7878"/>
<path d="M24.9257 58.15C26.7808 58.15 28.2846 56.6461 28.2846 54.7911C28.2846 52.936 26.7808 51.4321 24.9257 51.4321C23.0706 51.4321 21.5668 52.936 21.5668 54.7911C21.5668 56.6461 23.0706 58.15 24.9257 58.15Z" fill="#CFCAE4"/>
<path d="M25.1622 56.5896C26.1554 56.5896 26.9604 55.7845 26.9604 54.7914C26.9604 53.7983 26.1554 52.9932 25.1622 52.9932C24.1691 52.9932 23.364 53.7983 23.364 54.7914C23.364 55.7845 24.1691 56.5896 25.1622 56.5896Z" fill="white"/>
<path d="M24.789 54.7914C24.789 54.053 25.2367 53.4175 25.8747 53.1411C25.6561 53.0464 25.4153 52.9932 25.1622 52.9932C24.1707 52.9932 23.364 53.7999 23.364 54.7914C23.364 55.7829 24.1706 56.5896 25.1622 56.5896C25.4153 56.5896 25.6561 56.5364 25.8747 56.4417C25.2367 56.1651 24.789 55.5298 24.789 54.7914Z" fill="#605D5D"/>
<path d="M71.2008 38.6625L66.0111 30.397H56.2578V39.4898H71.5752C71.4881 39.2001 71.3633 38.9213 71.2008 38.6625Z" fill="white"/>
<path d="M71.7203 42.543H69.1417C68.767 42.543 68.4631 42.8468 68.4631 43.2215V46.6144C68.4631 46.9891 68.767 47.293 69.1417 47.293H71.7203V42.543Z" fill="#FFC50C"/>
<path d="M7.19838 33.7422H7.16572C3.21447 33.7422 0 36.9556 0 40.9053C0 43.4944 1.1791 46.9113 3.50452 51.0613C5.22858 54.138 6.97681 56.4944 6.99432 56.5179C7.04299 56.5832 7.11969 56.6217 7.20096 56.6217C7.20326 56.6217 7.20563 56.6217 7.20794 56.6216C7.29178 56.6193 7.36918 56.5764 7.4157 56.5065C7.43294 56.4804 9.16871 53.8592 10.8811 50.6532C13.1923 46.3259 14.3642 43.0462 14.3642 40.9053C14.364 36.9555 11.1495 33.7422 7.19838 33.7422ZM10.506 41.0804C10.506 42.9133 9.01488 44.4043 7.18199 44.4043C5.34917 44.4043 3.85806 42.9132 3.85806 41.0804C3.85806 39.2475 5.34917 37.7564 7.18199 37.7564C9.01488 37.7564 10.506 39.2475 10.506 41.0804Z" fill="#8B66A9"/>
<path d="M44.4872 54.0757H44.4468C39.5632 54.0757 35.5902 58.0474 35.5902 62.9291C35.5902 66.1291 37.0475 70.3523 39.9217 75.4817C42.0526 79.2844 44.2134 82.1968 44.235 82.2258C44.2951 82.3066 44.3899 82.3542 44.4904 82.3542C44.4932 82.3542 44.4962 82.3542 44.499 82.354C44.6026 82.3512 44.6983 82.2981 44.7558 82.2118C44.7771 82.1795 46.9225 78.9398 49.0389 74.9772C51.8955 69.6288 53.344 65.5752 53.344 62.9291C53.3438 58.0473 49.3707 54.0757 44.4872 54.0757ZM48.5753 63.1455C48.5753 65.4109 46.7323 67.2538 44.467 67.2538C42.2016 67.2538 40.3587 65.4108 40.3587 63.1455C40.3587 60.8802 42.2016 59.0372 44.467 59.0372C46.7323 59.0372 48.5753 60.8802 48.5753 63.1455Z" fill="#8B66A9"/>
</svg>
