<svg width="67" height="74" viewBox="0 0 67 74" fill="none" xmlns="http://www.w3.org/2000/svg">
<circle cx="33.048" cy="33.0481" r="33.0481" fill="#D8ECFE"/>
<path d="M66.0961 33.0483C66.0961 51.3003 51.3 66.0964 33.048 66.0964C14.796 66.0964 -0.00012207 51.3003 -0.00012207 33.0483C-0.00012207 23.3032 26.6926 19.9137 34.7428 33.0483C54.2327 50.4197 66.0961 29.235 66.0961 33.0483Z" fill="#B5ADD5"/>
<path d="M25.5557 60.854C25.0716 62.7263 24.071 64.5015 22.6184 65.9542C19.2613 69.279 6.84165 73.2417 5.45367 73.6612C4.9048 73.8226 4.2916 73.6612 3.87205 73.2416C3.45249 72.8219 3.2908 72.2086 3.45238 71.6276C3.87205 70.272 7.86677 57.8843 11.1914 54.5274C12.6439 53.0749 14.4193 52.0742 16.2916 51.5898L20.9075 56.2059L25.5557 60.854Z" fill="#FFE470"/>
<path d="M20.9076 56.2061L25.5558 60.854C25.0716 62.7263 24.0711 64.5016 22.6184 65.9542C19.2613 69.279 6.84167 73.2417 5.45369 73.6612C4.90483 73.8226 4.29163 73.6612 3.87207 73.2416L20.9076 56.2061Z" fill="#FFC50C"/>
<path d="M21.4564 57.949L16.9049 62.5325C16.5822 62.823 16.1626 62.9844 15.7752 62.9844C15.3556 62.9844 14.936 62.823 14.6131 62.5325V62.5002C13.9997 61.8547 13.9997 60.8539 14.6131 60.2407L19.1968 55.6893C19.8101 55.0437 20.8108 55.0437 21.4241 55.6893H21.4564C22.1017 56.3028 22.1017 57.3356 21.4564 57.949Z" fill="#FFC50C"/>
<path d="M21.4566 55.6896C22.1021 56.3029 22.1021 57.3358 21.4566 57.9491L16.9051 62.5326C16.5824 62.8232 16.1628 62.9846 15.7755 62.9846C15.3558 62.9846 14.9362 62.8232 14.6133 62.5326V62.5004L21.4243 55.6895L21.4566 55.6896Z" fill="#FDBF00"/>
<path d="M22.1568 34.5158C10.6941 34.5158 7.07665 44.2067 6.7864 44.5306C6.53423 45.0303 6.5579 45.626 6.85256 46.1035C7.14571 46.581 7.66585 46.8725 8.22688 46.8725C14.8514 47.4583 18.9848 47.8238 18.6545 47.7945L24.1442 34.5156H22.1568V34.5158Z" fill="#FE646F"/>
<path d="M29.3174 58.4382C29.3424 58.7688 30.1515 69.4356 30.0992 68.7445C30.0992 69.9464 31.3687 70.725 32.4414 70.1851C32.7645 69.8955 42.4561 66.209 42.4561 54.8147V52.8271L29.3174 58.4382Z" fill="#FF302C"/>
<path d="M30.6236 60.2729C28.9129 61.1445 27.2021 61.9839 25.5881 62.7908C24.9747 63.1136 24.2325 62.9845 23.7157 62.5003L14.6131 53.3976C14.129 52.8812 13.9998 52.1388 14.3227 51.5255C15.1297 49.9115 15.969 48.2007 16.8404 46.4899C17.357 45.4892 21.1013 47.7166 21.6179 46.6836L30.43 55.4957C29.397 56.0121 31.6243 59.7566 30.6236 60.2729Z" fill="#FF9A51"/>
<path d="M30.6236 60.2731C28.9129 61.1447 27.2021 61.984 25.5881 62.791C24.9748 63.1137 24.2325 62.9846 23.7158 62.5004L19.1646 57.9492L26.04 51.106L30.43 55.4959C29.397 56.0122 31.6243 59.7567 30.6236 60.2731Z" fill="#FF7816"/>
<path d="M57.1246 34.6759C55.672 40.228 53.0574 44.7469 48.9901 48.6528C44.2451 53.2363 36.6594 57.239 30.6233 60.2731L23.7478 53.3977L16.8401 46.49C19.8743 40.4538 23.8771 32.8358 28.4606 28.1232C32.3663 24.0561 36.8855 21.4414 42.4376 19.9888L45.6975 21.1831C45.7622 23.9913 46.8919 26.5415 48.7318 28.3812C50.5717 30.2211 53.1219 31.351 55.9301 31.4155L57.1246 34.6759Z" fill="#FEFEFF"/>
<path d="M57.1245 34.6759C55.672 40.228 53.0574 44.747 48.9901 48.6528C44.2451 53.2363 36.6594 57.239 30.6233 60.2732L23.7478 53.3977L48.7318 28.3813C50.5717 30.2213 53.1219 31.3512 55.9301 31.4156L57.1245 34.6759Z" fill="#D7D7EE"/>
<path d="M44.2777 32.8355C41.1467 29.7046 36.0143 29.7046 32.8833 32.8355C29.7521 35.999 29.7521 41.0668 32.8833 44.2302V44.2624C36.0143 47.3934 41.1467 47.3934 44.2777 44.2624C47.4412 41.099 47.4412 35.9991 44.2777 32.8355Z" fill="#B5ADD5"/>
<path d="M57.1248 34.6758C56.8665 34.6758 56.1241 34.6435 55.8659 34.6435C52.1536 34.5791 48.8614 33.0943 46.4405 30.6733C44.0195 28.2524 42.5346 24.9598 42.47 21.2479C42.47 20.9896 42.438 20.2472 42.438 19.9891C47.0215 18.7946 52.1538 18.504 56.8667 18.6977C57.2863 18.6977 57.6736 18.8592 57.9643 19.1496C58.2547 19.4402 58.4161 19.8276 58.4161 20.2472C58.6095 24.9596 58.2868 30.0921 57.1248 34.6758Z" fill="#FF9A51"/>
<path d="M30.5591 48.814C29.9458 49.4596 28.913 49.4596 28.2996 48.814C27.654 48.2007 27.654 47.1677 28.2996 46.5544C28.9129 45.9089 29.9457 45.9089 30.5591 46.5544C31.2048 47.1676 31.2048 48.2007 30.5591 48.814Z" fill="#5A5A5A"/>
<path d="M57.1247 34.6761C56.8664 34.6761 56.124 34.6438 55.8658 34.6438C52.1536 34.5794 48.8614 33.0946 46.4404 30.6736L57.964 19.1499C58.2544 19.4405 58.4159 19.8279 58.4159 20.2475C58.6094 24.9599 58.2868 30.0924 57.1247 34.6761Z" fill="#FF7816"/>
<path d="M44.2777 44.2628C41.1467 47.3938 36.0143 47.3938 32.8833 44.2628V44.2306L44.2777 32.8359C47.4412 35.9995 47.4412 41.0994 44.2777 44.2628Z" fill="#8B66A9"/>
<path d="M30.5588 48.8143C29.9455 49.4598 28.9127 49.4598 28.2993 48.8143L30.5588 46.5547C31.2045 47.1679 31.2045 48.201 30.5588 48.8143Z" fill="#685A5A"/>
</svg>
