<svg width="73" height="72" viewBox="0 0 73 72" fill="none" xmlns="http://www.w3.org/2000/svg">
<path d="M72.0279 33.9842C72.0279 52.2361 57.2317 67.0323 38.9798 67.0323C20.7278 67.0323 5.93164 52.2361 5.93164 33.9842C5.93164 15.7322 20.7278 0.936035 38.9798 0.936035C57.2317 0.936035 72.0279 15.7322 72.0279 33.9842Z" fill="#D8ECFE"/>
<g clip-path="url(#clip0)">
<path d="M30.1578 70.427L31.3539 64.4922H26.9031L28.0992 70.427C28.3256 71.5502 29.9314 71.5502 30.1578 70.427Z" fill="#958181"/>
<path d="M59.1991 70.427L60.3956 64.4922H55.9443L57.1408 70.427C57.3672 71.5502 58.9727 71.5502 59.1991 70.427Z" fill="#958181"/>
<path d="M29.6527 64.4922L28.4885 70.2677C28.4511 70.4535 28.3765 70.6088 28.278 70.735C28.7954 71.3956 29.9939 71.2402 30.1902 70.2677L31.354 64.4922H29.6527Z" fill="#685A5A"/>
<path d="M58.6939 64.4922L57.5297 70.2677C57.4922 70.4535 57.4181 70.6088 57.3191 70.735C57.8369 71.3956 59.0354 71.2402 59.2314 70.2677L60.3956 64.4922H58.6939Z" fill="#685A5A"/>
<path d="M62.1234 37.578C63.6997 29.4919 58.5382 21.5402 50.467 19.8886C49.4732 19.6855 48.4443 19.5786 47.3902 19.5786H39.9362C37.4762 19.5786 35.1521 20.1607 33.0939 21.1943C27.1216 24.1939 23.9257 30.8536 25.1517 37.4234L27.8571 51.9192V59.1846H59.2859L59.31 52.0111L62.1234 37.578Z" fill="#FF302C"/>
<path d="M47.3902 19.5786H41.9069C42.961 19.5786 43.9899 19.6855 44.9837 19.8886C53.0545 21.5406 58.2164 29.4919 56.6401 37.578L54.0739 50.742C53.9095 51.5859 53.8251 52.4441 53.8223 53.3042L53.8026 59.1846H59.2859L59.3056 53.3042C59.3084 52.4441 59.3924 51.5859 59.5572 50.742L62.1234 37.578C63.6996 29.4919 58.5382 21.5402 50.467 19.8886C49.4732 19.6855 48.4443 19.5786 47.3902 19.5786V19.5786Z" fill="#B8280A"/>
<path d="M35.2318 40.8553C35.2318 41.7777 34.484 42.5255 33.5616 42.5255C32.6396 42.5255 31.8918 41.7777 31.8918 40.8553C31.8918 39.9333 32.6396 39.1855 33.5616 39.1855C34.484 39.1855 35.2318 39.9333 35.2318 40.8553Z" fill="#685A5A"/>
<path d="M45.2877 40.8553C45.2877 41.7777 44.54 42.5255 43.6175 42.5255C42.6951 42.5255 41.9474 41.7777 41.9474 40.8553C41.9474 39.9333 42.6951 39.1855 43.6175 39.1855C44.54 39.1855 45.2877 39.9333 45.2877 40.8553Z" fill="#685A5A"/>
<path d="M55.4069 40.8553C55.4069 41.7777 54.6592 42.5255 53.7368 42.5255C52.8143 42.5255 52.067 41.7777 52.067 40.8553C52.067 39.9333 52.8143 39.1855 53.7368 39.1855C54.6592 39.1855 55.4069 39.9333 55.4069 40.8553Z" fill="#685A5A"/>
<path d="M39.8045 49.4494C39.8045 50.3719 39.0568 51.1192 38.1344 51.1192C37.2119 51.1192 36.4646 50.3719 36.4646 49.4494C36.4646 48.527 37.2119 47.7793 38.1344 47.7793C39.0568 47.7793 39.8045 48.527 39.8045 49.4494Z" fill="#685A5A"/>
<path d="M49.9235 49.4494C49.9235 50.3719 49.1758 51.1192 48.2534 51.1192C47.3313 51.1192 46.5836 50.3719 46.5836 49.4494C46.5836 48.527 47.3313 47.7793 48.2534 47.7793C49.1758 47.7793 49.9235 48.527 49.9235 49.4494Z" fill="#685A5A"/>
<path d="M61.7795 65.387H25.5193C24.4786 65.387 23.635 64.5434 23.635 63.5027V62.8496C23.635 59.3957 26.435 56.5957 29.8893 56.5957H57.4095C60.8634 56.5957 63.6634 59.3957 63.6634 62.8496V63.5027C63.6634 64.5434 62.8199 65.387 61.7795 65.387Z" fill="#F01914"/>
<path d="M57.2139 56.5957H51.7917C53.0091 57.7686 53.7675 59.4146 53.7675 61.2386V61.6377C53.7675 62.7108 52.8979 63.5804 51.8248 63.5804H23.6421C23.7123 64.5896 24.5511 65.387 25.578 65.387H61.7207C62.7938 65.387 63.6634 64.517 63.6634 63.4439V63.0448C63.6634 59.4833 60.7758 56.5957 57.2139 56.5957Z" fill="#B8280A"/>
<path d="M25.0433 61.9762C24.613 61.9762 24.2644 61.6276 24.2644 61.1974V54.066C24.2644 53.6357 24.613 53.2871 25.0433 53.2871C25.4735 53.2871 25.8222 53.6357 25.8222 54.066V61.1974C25.8222 61.6276 25.4735 61.9762 25.0433 61.9762Z" fill="#685A5A"/>
<path d="M62.255 61.9762C61.8252 61.9762 61.4766 61.6276 61.4766 61.1974V54.066C61.4766 53.6357 61.8252 53.2871 62.255 53.2871C62.6853 53.2871 63.0339 53.6357 63.0339 54.066V61.1974C63.0339 61.6276 62.6853 61.9762 62.255 61.9762Z" fill="#685A5A"/>
<path d="M27.4284 54.2515H23.9545C22.3928 54.2515 21.1268 52.9856 21.1268 51.4243V50.815C21.1268 49.2537 22.3928 47.9878 23.9545 47.9878H27.4284C28.9897 47.9878 30.2557 49.2537 30.2557 50.815V51.4243C30.2557 52.9856 28.9897 54.2515 27.4284 54.2515Z" fill="#FF302C"/>
<path d="M63.3443 54.2515H59.8703C58.3086 54.2515 57.0427 52.9856 57.0427 51.4243V50.815C57.0427 49.2537 58.3086 47.9878 59.8703 47.9878H63.3443C64.9056 47.9878 66.1716 49.2537 66.1716 50.815V51.4243C66.1716 52.9856 64.906 54.2515 63.3443 54.2515Z" fill="#F01914"/>
<path d="M63.2734 47.9878H60.2415C61.8422 47.9878 63.1401 49.2853 63.1401 50.8864V51.3529C63.1401 52.9537 61.8422 54.2515 60.2415 54.2515H63.2734C64.8741 54.2515 66.1716 52.9537 66.1716 51.3529V50.8864C66.1716 49.2853 64.8741 47.9878 63.2734 47.9878Z" fill="#B8280A"/>
<path d="M27.2947 47.9878H24.2628C25.8636 47.9878 27.1614 49.2853 27.1614 50.8864V51.3529C27.1614 52.9537 25.8636 54.2515 24.2628 54.2515H27.2947C28.8955 54.2515 30.1929 52.9537 30.1929 51.3529V50.8864C30.1929 49.2853 28.8955 47.9878 27.2947 47.9878Z" fill="#B8280A"/>
<path d="M47.4727 33.3196C47.8319 33.3196 48.1301 33.0419 48.1557 32.6835L48.5777 26.7443C48.5946 26.5171 48.2977 26.4173 48.1742 26.6086L45.6566 30.5038C45.556 30.6596 45.3194 30.628 45.263 30.4517L43.5546 25.1136C43.4895 24.9101 43.2016 24.9101 43.1366 25.1136L41.4282 30.4517C41.3714 30.628 41.1352 30.6596 41.0346 30.5038L38.5075 26.594C38.3848 26.4039 38.0894 26.5017 38.104 26.7277L38.5177 32.6823C38.5426 33.0415 38.8407 33.3196 39.2008 33.3196H47.4727Z" fill="#FFC50C"/>
<path d="M48.1741 26.6089L46.272 29.5513L46.0496 32.6837C46.024 33.0422 45.7258 33.3199 45.3666 33.3199H47.4725C47.8318 33.3199 48.1299 33.0422 48.1551 32.6837L48.5771 26.7446C48.5945 26.5174 48.2975 26.4176 48.1741 26.6089Z" fill="#FF6914"/>
</g>
<path d="M4.89258 25.4854L7.30957 17.4653H9.75586L6.04248 28.1294H3.75L0.0512695 17.4653H2.49023L4.89258 25.4854ZM13.103 28.1294H10.9058V17.4653H13.103V28.1294ZM17.3438 24.3721V28.1294H15.1465V17.4653H19.3066C20.1074 17.4653 20.8105 17.6118 21.416 17.9048C22.0264 18.1978 22.4951 18.6152 22.8223 19.1572C23.1494 19.6943 23.313 20.3071 23.313 20.9956C23.313 22.0405 22.9541 22.8657 22.2363 23.4712C21.5234 24.0718 20.5347 24.3721 19.27 24.3721H17.3438ZM17.3438 22.5923H19.3066C19.8877 22.5923 20.3296 22.4556 20.6323 22.1821C20.9399 21.9087 21.0938 21.5181 21.0938 21.0103C21.0938 20.4878 20.9399 20.0654 20.6323 19.7432C20.3247 19.4209 19.8999 19.2549 19.3579 19.2451H17.3438V22.5923Z" fill="#8B66A9"/>
<defs>
<clipPath id="clip0">
<rect width="51.6907" height="51.6907" fill="white" transform="translate(17.7952 19.5786)"/>
</clipPath>
</defs>
</svg>
